<?xml version="1.0" standalone="no"?>
<!DOCTYPE svg PUBLIC "-//W3C//DTD SVG 20010904//EN"
 "http://www.w3.org/TR/2001/REC-SVG-20010904/DTD/svg10.dtd">
<svg version="1.0" xmlns="http://www.w3.org/2000/svg"
 width="2659.000000pt" height="2366.000000pt" viewBox="0 0 2659.000000 2366.000000"
 preserveAspectRatio="xMidYMid meet">
<metadata>
Created by potrace 1.16, written by Peter Selinger 2001-2019
</metadata>
<g transform="translate(0.000000,2366.000000) scale(0.100000,-0.100000)"
fill="#000000" stroke="none">
<path d="M9550 16831 l-725 -6 -54 -28 c-109 -58 -188 -155 -225 -277 -15 -51
-16 -133 -14 -885 l3 -830 36 -75 c43 -90 129 -177 202 -205 l47 -18 0 -58 c0
-33 -1 -60 -2 -61 -2 -2 -318 -5 -703 -8 l-700 -5 0 -100 0 -100 8952 0 8952
0 28 -21 c15 -11 38 -36 51 -54 l22 -33 0 -1487 0 -1487 -23 -34 c-12 -18 -40
-44 -62 -56 -39 -22 -48 -23 -321 -23 -209 0 -284 3 -297 13 -15 11 -17 44
-19 307 l-3 295 -617 3 -618 2 0 -298 c0 -218 -3 -301 -12 -310 -9 -9 -340
-12 -1429 -12 -1256 0 -1418 2 -1429 15 -10 12 -11 43 -6 125 7 103 6 111 -18
158 -33 65 -101 124 -174 151 -72 26 -78 26 -150 1 -126 -43 -402 -145 -452
-167 -44 -20 -246 -29 -315 -15 -27 6 -97 24 -155 41 -138 40 -206 41 -252 4
-18 -15 -40 -37 -48 -47 -27 -35 -80 -138 -90 -176 -6 -21 -19 -49 -31 -64
l-20 -26 -1219 0 c-751 0 -1228 4 -1244 10 -14 5 -45 40 -73 82 -102 154 -296
329 -458 411 -347 177 -659 181 -1015 14 -176 -82 -381 -256 -497 -420 -30
-42 -63 -82 -73 -87 -12 -7 -1178 -10 -3342 -10 -3033 1 -3326 2 -3363 17 -22
9 -72 18 -112 20 -87 5 -82 15 -86 -167 l-2 -125 -1055 -5 c-580 -3 -1056 -6
-1057 -8 -2 -1 -3 -82 -3 -180 0 -125 4 -182 12 -190 8 -8 48 -12 115 -12 84
0 111 4 143 20 39 20 59 20 4263 20 3271 0 4226 -3 4235 -12 7 -7 12 -35 12
-62 0 -51 -1 -51 -58 -91 -177 -123 -338 -305 -442 -500 -66 -124 -140 -345
-140 -417 0 -40 -40 -78 -82 -78 -71 0 -247 -45 -388 -101 -307 -121 -587
-355 -755 -630 -176 -288 -259 -654 -210 -929 19 -107 19 -184 1 -199 -10 -8
-842 -10 -3212 -6 -1760 3 -3259 6 -3333 7 -104 1 -135 -2 -142 -13 -13 -20
-11 -306 2 -330 10 -20 20 -20 967 -18 l957 2 3 -57 c3 -49 -1 -61 -25 -93
l-28 -36 -1 -1456 c-1 -801 -5 -1513 -8 -1583 -6 -112 -5 -128 8 -128 9 0 16
-8 16 -17 1 -22 23 -53 39 -53 6 0 11 -4 11 -10 0 -5 9 -10 20 -10 11 0 23 -7
26 -15 5 -13 77 -15 563 -15 l556 0 51 38 c58 45 160 106 213 128 57 24 182
64 201 64 10 0 31 7 46 15 16 8 38 15 50 15 11 0 40 6 65 14 24 8 89 24 144
36 55 12 128 28 162 36 34 8 76 14 92 14 16 0 41 4 56 10 14 5 82 17 151 25
69 9 148 20 176 25 28 6 77 10 110 10 51 0 62 4 83 26 14 15 25 33 25 40 0 7
3 14 8 16 4 1 17 23 30 48 12 25 42 81 66 125 24 44 54 100 67 125 12 25 25
47 28 50 4 3 24 40 45 83 21 42 43 77 47 77 5 0 9 6 9 14 0 8 16 43 36 78 21
34 48 83 62 108 15 25 30 47 34 48 4 2 8 10 8 18 0 16 49 97 61 102 5 2 9 10
9 17 0 15 71 138 82 143 5 2 8 8 8 14 0 6 16 35 35 64 19 29 35 55 35 59 0 3
16 27 35 52 19 25 35 52 35 59 0 7 3 14 8 16 10 4 62 85 62 97 0 5 4 11 9 13
4 2 37 48 72 103 35 55 67 101 71 103 5 2 8 8 8 14 0 6 32 57 70 114 39 58 70
107 70 110 0 3 16 25 35 48 19 24 35 48 35 54 0 6 4 12 8 14 5 2 29 31 53 66
72 103 83 118 163 215 41 51 87 99 101 107 14 7 25 17 25 22 0 11 25 38 35 38
8 0 35 27 35 35 0 7 26 35 33 35 2 0 21 16 41 35 21 19 44 35 52 35 8 0 14 4
14 10 0 15 84 60 112 60 14 0 28 6 31 14 8 21 376 21 384 0 3 -9 20 -14 48
-14 24 0 47 -4 50 -10 3 -6 15 -10 26 -10 10 0 19 -4 19 -10 0 -5 9 -10 19
-10 11 0 26 -7 35 -15 8 -8 26 -15 40 -15 14 0 26 -4 26 -10 0 -5 9 -10 20
-10 11 0 20 -4 20 -10 0 -5 9 -10 20 -10 11 0 23 -7 26 -15 4 -8 17 -15 30
-15 13 0 24 -4 24 -10 0 -5 9 -10 20 -10 11 0 20 -4 20 -9 0 -5 8 -11 18 -13
15 -4 22 5 35 46 24 78 53 209 101 456 42 215 81 542 91 760 22 470 135 785
329 914 114 75 159 90 281 90 69 1 142 -6 195 -17 106 -22 256 -24 419 -4 140
17 138 17 179 122 13 33 30 76 37 95 33 84 69 235 95 391 l18 114 -53 48 c-91
81 -158 186 -195 305 -16 52 -20 93 -20 222 0 156 3 183 55 450 7 41 19 108
26 147 14 82 28 102 98 138 124 62 318 241 449 413 l62 82 75 0 c82 0 95 -9
95 -67 0 -59 40 -212 79 -308 90 -218 243 -434 430 -605 l91 -83 0 -79 c0
-142 -42 -332 -98 -441 -40 -78 -145 -196 -206 -232 -66 -39 -85 -64 -92 -126
-5 -45 -2 -63 15 -98 12 -23 28 -44 36 -47 8 -4 52 14 97 39 46 24 108 58 138
74 164 89 449 262 478 290 7 7 25 16 40 19 15 4 52 13 82 20 127 32 304 11
377 -46 54 -41 136 -125 160 -163 104 -165 109 -626 13 -1277 -25 -170 -47
-346 -65 -525 -16 -155 -48 -705 -41 -712 5 -5 68 32 146 86 318 220 549 528
670 891 52 159 90 363 90 495 0 83 -31 295 -55 380 -91 325 -213 537 -443 771
-139 143 -263 240 -417 329 -55 31 -103 62 -107 69 -10 15 -9 118 3 186 5 30
14 100 20 155 7 55 16 106 22 113 7 9 227 12 1039 12 l1029 0 33 35 c32 34 35
35 109 35 l76 0 12 43 c6 23 17 60 24 82 8 22 30 94 50 160 51 166 103 295
133 328 57 61 202 62 360 3 46 -18 186 -90 297 -154 238 -138 374 -176 540
-152 44 7 119 14 166 17 l85 5 33 -38 34 -38 -6 -105 c-3 -58 -12 -126 -21
-150 -9 -24 -16 -50 -16 -57 0 -12 224 -14 1433 -14 1101 0 1436 -3 1445 -12
9 -9 12 -100 12 -350 l0 -337 148 90 c81 50 189 117 241 150 51 32 95 59 98
59 3 0 16 9 30 20 37 29 179 29 211 0 12 -11 23 -20 26 -20 3 0 50 -28 106
-62 55 -35 115 -72 133 -83 76 -46 175 -108 210 -131 l37 -24 0 334 c0 291 2
337 16 350 14 14 89 16 673 16 745 0 718 3 791 -76 76 -82 70 33 70 -1444 0
-1308 0 -1331 -20 -1373 -24 -51 -56 -87 -107 -118 l-38 -24 -2146 -3 -2145
-2 12 -108 c16 -140 42 -426 51 -577 l8 -120 1838 -3 1837 -2 0 140 c0 118 -2
140 -15 140 -8 0 -15 7 -15 16 0 17 -36 54 -52 54 -4 0 -8 32 -8 70 l0 70 315
0 c203 0 315 4 315 10 0 6 16 10 35 10 19 0 35 5 35 10 0 6 9 10 20 10 11 0
20 5 20 10 0 6 14 10 30 10 17 0 30 5 30 10 0 14 46 60 60 60 5 0 10 5 10 10
0 12 45 60 55 60 15 0 35 30 35 52 0 27 21 78 33 78 4 0 7 7 7 15 0 9 7 18 15
21 10 4 15 20 15 50 0 27 5 44 12 44 8 0 9 99 4 403 -8 447 -15 547 -40 572
-19 19 -20 27 -38 160 -18 139 -17 524 2 590 14 50 30 75 48 75 15 0 20 31 33
215 15 218 9 747 -9 753 -7 2 -12 19 -12 39 0 19 -6 41 -12 48 -32 35 -38 45
-38 60 0 8 -4 15 -10 15 -5 0 -10 11 -10 25 0 14 -5 25 -11 25 -11 0 -39 25
-39 35 0 7 -47 55 -54 55 -2 0 -18 14 -34 30 -17 17 -40 30 -51 30 -11 0 -24
6 -28 13 -10 15 -92 44 -152 53 -32 5 -45 12 -49 27 -5 19 -12 20 -321 16
l-316 -4 -3 62 c-3 61 -2 62 30 79 17 9 38 23 46 30 7 8 19 14 26 14 22 0 56
36 56 59 0 12 6 21 15 21 9 0 15 9 15 25 0 14 5 25 10 25 6 0 10 11 10 25 0
14 5 25 10 25 6 0 10 16 10 35 0 26 4 35 17 35 15 0 16 100 10 1437 -4 790
-11 1439 -15 1442 -4 3 -16 32 -27 64 -11 31 -23 57 -27 57 -4 0 -8 8 -8 18 0
15 -14 36 -69 97 -26 29 -70 65 -80 65 -5 0 -14 7 -21 15 -7 8 -23 15 -36 15
-12 0 -26 5 -29 10 -3 6 -22 10 -41 10 -24 0 -34 5 -34 15 0 13 -104 15 -875
15 -617 0 -875 -3 -875 -11 0 -7 -28 -8 -87 -4 -49 4 -1771 10 -3828 13
l-3740 7 3 116 3 115 -28 15 c-24 12 -515 15 -3515 19 l-3487 5 -27 21 c-15
11 -37 33 -48 48 -21 27 -21 34 -21 916 0 882 0 889 21 916 11 15 33 37 48 48
l27 21 3492 5 c2819 4 3496 7 3515 18 19 11 22 21 22 77 0 51 -4 66 -17 74
-21 10 -5166 21 -6253 12z"/>
<path d="M18776 9663 c-10 -38 -25 -93 -33 -123 -8 -30 -23 -82 -33 -115 -36
-120 -41 -152 -30 -202 31 -136 151 -284 310 -382 47 -29 92 -57 100 -62 18
-11 149 -69 205 -91 118 -47 145 -56 205 -72 36 -10 76 -23 90 -28 14 -6 70
-18 125 -28 85 -14 108 -15 160 -4 136 29 244 115 307 244 60 122 77 174 84
248 9 91 -4 228 -19 213 -6 -6 -35 -11 -64 -11 l-53 0 -32 68 c-36 75 -128
175 -193 208 -117 60 -274 87 -400 68 -47 -7 -104 -19 -128 -27 -23 -8 -67
-23 -97 -33 -44 -15 -84 -19 -195 -19 -135 0 -142 1 -172 25 -39 32 -78 93
-94 148 -7 23 -15 42 -18 42 -4 0 -14 -30 -25 -67z m889 -213 c39 -11 121 -34
183 -50 172 -45 166 -41 170 -131 3 -75 2 -77 -30 -104 -31 -26 -36 -27 -118
-23 -47 3 -107 12 -135 21 -27 8 -93 27 -145 41 -139 38 -144 44 -148 151 -2
55 1 92 9 101 17 21 132 18 214 -6z"/>
<path d="M15210 6360 c-19 -4 -78 -17 -130 -29 -52 -12 -117 -26 -145 -30 -51
-9 -148 -34 -175 -45 -8 -4 -26 -23 -40 -44 -13 -20 -41 -60 -62 -88 -21 -27
-62 -89 -91 -136 l-54 -86 31 -16 c17 -9 59 -34 94 -56 l63 -41 107 13 c103
12 108 13 159 55 67 54 113 83 135 83 9 0 19 8 22 18 4 9 55 96 115 192 l110
175 -21 23 c-23 23 -53 26 -118 12z"/>
<path d="M16035 6080 c-90 -9 -112 -15 -208 -58 -171 -78 -343 -233 -470 -424
-45 -67 -137 -246 -137 -268 0 -8 -9 -39 -20 -68 -25 -66 -25 -109 0 -147 11
-16 20 -39 20 -50 0 -11 12 -51 26 -90 14 -38 30 -83 35 -100 6 -16 14 -39 19
-50 4 -11 20 -54 35 -95 14 -41 30 -84 35 -95 5 -11 21 -51 35 -90 15 -38 31
-74 36 -79 5 -6 9 -19 9 -30 0 -12 9 -32 20 -46 11 -14 20 -35 20 -46 0 -12 7
-24 15 -28 8 -3 15 -15 15 -26 0 -11 3 -20 8 -20 11 0 32 -51 32 -77 0 -13 5
-23 10 -23 6 0 10 -13 10 -30 0 -20 5 -30 15 -30 8 0 15 -9 15 -20 0 -11 5
-20 10 -20 6 0 10 -11 10 -24 0 -13 7 -26 15 -30 8 -3 15 -11 15 -19 0 -18 23
-67 33 -67 4 0 7 -11 7 -25 0 -14 5 -25 10 -25 6 0 10 -11 10 -24 0 -13 7 -26
15 -30 8 -3 15 -12 15 -21 0 -8 5 -15 10 -15 6 0 10 -11 10 -25 0 -14 5 -25
10 -25 6 0 10 -11 10 -25 0 -16 6 -25 15 -25 8 0 15 -7 15 -15 0 -8 5 -15 10
-15 6 0 10 -9 10 -19 0 -11 5 -23 10 -26 6 -3 10 -15 10 -26 0 -10 5 -19 10
-19 6 0 10 -7 10 -15 0 -9 7 -18 15 -21 8 -4 15 -15 15 -25 0 -10 5 -19 10
-19 6 0 10 -11 10 -25 0 -14 4 -25 9 -25 13 0 61 -77 61 -100 0 -11 4 -20 9
-20 10 0 61 -75 61 -90 0 -5 9 -19 20 -30 11 -11 20 -29 20 -40 0 -11 7 -20
15 -20 8 0 15 -7 15 -15 0 -8 5 -15 10 -15 6 0 10 -7 10 -15 0 -9 11 -26 25
-39 14 -13 25 -31 25 -40 0 -9 5 -16 10 -16 6 0 10 -13 10 -30 0 -24 4 -30 21
-30 12 0 23 -8 26 -20 3 -11 9 -20 14 -20 5 0 9 -9 9 -20 0 -11 6 -20 13 -20
8 0 20 -11 27 -25 7 -14 17 -25 22 -25 4 0 8 -7 8 -15 0 -9 11 -26 25 -39 14
-13 25 -28 25 -35 0 -6 5 -11 10 -11 6 0 10 -9 10 -20 0 -11 5 -20 10 -20 6 0
10 -5 10 -10 0 -14 46 -60 60 -60 5 0 10 -9 10 -20 0 -22 41 -70 60 -70 5 0
10 -6 10 -13 0 -7 9 -19 20 -27 11 -8 20 -21 20 -28 0 -8 52 -65 115 -128 63
-62 115 -118 115 -124 0 -5 5 -10 10 -10 14 0 60 -46 60 -60 0 -5 5 -10 10
-10 6 0 26 -16 46 -35 19 -19 39 -35 45 -35 13 0 33 -20 42 -42 3 -10 16 -18
27 -18 11 0 20 -5 20 -11 0 -16 26 -39 45 -39 16 0 45 -22 45 -35 0 -13 29
-35 45 -35 17 0 45 -23 45 -36 0 -11 33 -33 50 -34 9 0 22 -9 30 -20 8 -11 22
-20 32 -20 10 0 18 -7 18 -15 0 -10 10 -15 28 -15 16 0 34 -8 42 -20 8 -11 25
-20 37 -20 14 0 23 -6 23 -15 0 -8 9 -15 20 -15 11 0 20 -4 20 -10 0 -5 11
-10 25 -10 14 0 25 -4 25 -10 0 -15 32 -12 75 6 28 11 56 14 104 10 36 -3 77
-7 91 -7 14 -1 55 13 91 30 57 28 75 32 130 29 l64 -3 187 -295 c104 -162 188
-298 188 -302 0 -5 9 -17 20 -28 11 -11 20 -33 20 -48 0 -16 8 -34 20 -42 11
-8 20 -22 20 -31 0 -9 11 -25 25 -35 14 -10 25 -27 25 -36 0 -10 7 -18 15 -18
8 0 15 5 15 10 0 6 23 10 50 10 28 0 50 5 50 10 0 6 20 10 45 10 33 0 45 4 45
15 0 11 12 15 50 15 28 0 50 5 50 10 0 6 23 10 50 10 28 0 50 4 50 9 0 12 89
31 145 31 33 0 45 4 45 15 0 11 12 15 46 15 26 0 51 6 60 14 8 9 46 17 94 22
58 5 80 10 80 20 0 10 14 14 49 14 28 0 53 5 56 10 3 5 24 10 46 10 21 0 39 5
39 10 0 6 20 10 45 10 33 0 45 4 45 15 0 10 10 15 31 15 31 0 31 0 24 42 -3
24 -10 120 -13 215 l-7 171 -107 102 -108 102 0 56 c0 32 4 62 8 67 8 12 113
101 337 285 83 68 176 145 207 172 55 47 58 48 121 48 l64 0 174 -183 174
-183 103 -7 102 -6 90 -82 c49 -45 106 -93 127 -108 21 -14 44 -32 51 -38 8
-8 42 -13 86 -13 82 0 93 -7 98 -59 l3 -34 130 -1 130 -1 3 -33 c3 -30 6 -32
42 -32 24 0 40 5 44 15 3 10 19 15 46 15 22 0 40 5 40 10 0 6 16 10 35 10 19
0 35 5 35 10 0 6 18 10 39 10 25 0 41 5 45 15 3 9 19 15 41 15 19 0 35 5 35
10 0 6 16 10 35 10 19 0 35 5 35 10 0 6 16 10 36 10 19 0 42 7 50 15 9 8 29
15 45 15 16 0 29 5 29 10 0 6 14 10 30 10 17 0 30 4 30 9 0 9 40 18 123 27 31
4 47 11 47 20 0 8 10 14 24 14 14 0 28 5 31 10 3 6 19 10 36 10 16 0 29 5 29
10 0 6 18 10 39 10 25 0 41 5 45 15 3 9 18 15 36 15 16 0 30 5 30 10 0 6 14
10 30 10 17 0 30 5 30 10 0 6 18 10 39 10 25 0 41 5 45 15 3 8 17 15 31 15 14
0 25 5 25 10 0 6 11 10 24 10 14 0 28 5 31 10 3 6 20 10 36 10 17 0 37 7 45
15 9 8 26 15 40 15 13 0 24 5 24 10 0 6 11 10 25 10 14 0 25 5 25 10 0 6 14
10 30 10 17 0 30 5 30 10 0 6 13 10 29 10 16 0 31 6 35 15 3 8 15 15 26 15 11
0 20 5 20 10 0 6 15 10 34 10 21 0 36 6 40 15 3 8 11 15 19 15 18 0 67 23 67
33 0 4 11 7 24 7 14 0 28 5 31 10 3 5 17 10 30 10 12 0 25 7 29 15 3 8 12 15
21 15 8 0 15 5 15 10 0 6 11 10 25 10 14 0 25 5 25 10 0 6 9 10 20 10 11 0 20
5 20 10 0 6 9 10 20 10 11 0 20 7 20 15 0 8 7 15 16 15 8 0 21 6 28 13 34 32
67 57 76 57 6 0 10 5 10 10 0 6 7 10 16 10 18 0 37 17 47 43 3 9 11 17 17 17
5 0 10 6 10 13 0 7 9 19 20 27 11 8 20 18 20 22 0 7 28 43 58 74 6 7 12 16 12
20 0 4 11 17 25 30 14 13 25 30 25 39 0 8 5 15 10 15 6 0 10 9 10 20 0 11 4
20 9 20 5 0 12 11 15 25 4 14 11 25 16 25 6 0 10 7 10 15 0 8 5 15 10 15 6 0
10 11 10 25 0 14 5 25 10 25 6 0 10 7 10 17 0 22 32 93 42 93 4 0 8 16 8 35 0
19 5 35 10 35 6 0 10 20 10 44 0 25 4 47 9 51 5 3 12 19 16 35 4 17 11 30 16
30 5 0 9 34 9 75 0 43 4 75 10 75 6 0 10 13 10 29 0 17 6 31 16 35 9 3 205 6
436 6 461 0 466 1 502 60 9 17 24 30 32 30 11 0 14 25 14 139 0 135 -1 139
-22 145 -13 3 -318 6 -679 6 -571 0 -658 2 -669 15 -7 8 -26 15 -43 15 -35 0
-97 20 -97 32 0 4 -14 8 -30 8 -18 0 -33 6 -36 15 -4 11 -21 15 -55 15 -27 0
-49 5 -49 10 0 6 -22 10 -50 10 -27 0 -50 5 -50 10 0 6 -27 10 -60 10 -45 0
-62 4 -66 15 -5 11 -23 15 -78 15 -39 0 -77 -4 -85 -9 -14 -9 -45 -107 -60
-188 -11 -58 -30 -76 -103 -97 -35 -10 -76 -27 -93 -36 -16 -10 -45 -21 -62
-25 -18 -3 -35 -11 -38 -16 -4 -5 -13 -9 -21 -9 -12 0 -65 -19 -234 -85 -19
-7 -75 -29 -125 -48 l-90 -35 -815 -16 c-448 -9 -993 -18 -1210 -21 -217 -3
-584 -10 -815 -17 -491 -13 -439 -22 -582 109 -92 84 -93 85 -93 133 0 41 -3
48 -22 53 -118 28 -150 52 -570 432 -85 77 -254 229 -376 339 -123 109 -228
206 -235 215 -15 21 -466 422 -776 690 -491 425 -625 528 -736 568 -131 47
-253 64 -380 53z"/>
<path d="M12371 4479 c-17 -28 -31 -53 -31 -55 0 -3 -11 -20 -25 -38 -14 -18
-25 -38 -25 -44 0 -7 -4 -12 -10 -12 -5 0 -10 -5 -10 -10 0 -6 -23 -43 -50
-82 -28 -39 -49 -72 -48 -73 2 -1 37 2 78 6 41 4 132 8 202 8 144 1 137 -7 90
89 -14 29 -30 55 -34 58 -4 3 -8 11 -8 19 0 7 -16 41 -35 75 -19 34 -35 68
-35 75 0 7 -6 18 -14 24 -10 9 -20 0 -45 -40z"/>
</g>
</svg>
